<svg width="198" height="42" viewBox="0 0 198 42" fill="none" xmlns="http://www.w3.org/2000/svg">
<g id="Group 42">
<g id="Group 38">
<rect id="Rectangle 20" x="20.3223" width="1.35484" height="42" fill="#C4AB8E"/>
<rect id="Rectangle 21" y="21.6772" width="1.35484" height="42" transform="rotate(-90 0 21.6772)" fill="#C4AB8E"/>
<rect id="Rectangle 22" x="5.67188" y="6.62988" width="1.35484" height="42" transform="rotate(-45 5.67188 6.62988)" fill="#C4AB8E"/>
<rect id="Rectangle 23" width="1.35484" height="42" transform="matrix(-0.707107 -0.707107 -0.707107 0.707107 36.3281 6.62988)" fill="#C4AB8E"/>
</g>
<g id="Group 41">
<rect id="Rectangle 20_2" x="72.3223" width="1.35484" height="42" fill="#C4AB8E"/>
<rect id="Rectangle 21_2" x="52" y="21.6772" width="1.35484" height="42" transform="rotate(-90 52 21.6772)" fill="#C4AB8E"/>
<rect id="Rectangle 22_2" x="57.6719" y="6.62988" width="1.35484" height="42" transform="rotate(-45 57.6719 6.62988)" fill="#C4AB8E"/>
<rect id="Rectangle 23_2" width="1.35484" height="42" transform="matrix(-0.707107 -0.707107 -0.707107 0.707107 88.3281 6.62988)" fill="#C4AB8E"/>
</g>
<g id="Group 42_2">
<rect id="Rectangle 20_3" x="124.322" width="1.35484" height="42" fill="#C4AB8E"/>
<rect id="Rectangle 21_3" x="104" y="21.6772" width="1.35484" height="42" transform="rotate(-90 104 21.6772)" fill="#C4AB8E"/>
<rect id="Rectangle 22_3" x="109.672" y="6.62988" width="1.35484" height="42" transform="rotate(-45 109.672 6.62988)" fill="#C4AB8E"/>
<rect id="Rectangle 23_3" width="1.35484" height="42" transform="matrix(-0.707107 -0.707107 -0.707107 0.707107 140.328 6.62988)" fill="#C4AB8E"/>
</g>
<g id="Group 43">
<rect id="Rectangle 21_4" x="156" y="21.6777" width="1.35484" height="42" transform="rotate(-90 156 21.6777)" fill="#C4AB8E"/>
</g>
</g>
</svg>
