<svg xmlns="http://www.w3.org/2000/svg" width="198" height="42" viewBox="0 0 198 42" fill="none">
  <rect x="20.3223" width="1.35484" height="42" fill="#C4AB8E"/>
  <rect y="21.6772" width="1.35484" height="42" transform="rotate(-90 0 21.6772)" fill="#C4AB8E"/>
  <rect x="5.67188" y="6.62988" width="1.35484" height="42" transform="rotate(-45 5.67188 6.62988)" fill="#C4AB8E"/>
  <rect width="1.35484" height="42" transform="matrix(-0.707107 -0.707107 -0.707107 0.707107 36.3281 6.62988)" fill="#C4AB8E"/>
  <rect x="72.3223" width="1.35484" height="42" fill="#C4AB8E"/>
  <rect x="52" y="21.6772" width="1.35484" height="42" transform="rotate(-90 52 21.6772)" fill="#C4AB8E"/>
  <rect x="57.6719" y="6.62988" width="1.35484" height="42" transform="rotate(-45 57.6719 6.62988)" fill="#C4AB8E"/>
  <rect width="1.35484" height="42" transform="matrix(-0.707107 -0.707107 -0.707107 0.707107 88.3281 6.62988)" fill="#C4AB8E"/>
  <rect x="124.322" width="1.35484" height="42" fill="#C4AB8E"/>
  <rect x="104" y="21.6772" width="1.35484" height="42" transform="rotate(-90 104 21.6772)" fill="#C4AB8E"/>
  <rect x="109.672" y="6.62988" width="1.35484" height="42" transform="rotate(-45 109.672 6.62988)" fill="#C4AB8E"/>
  <rect width="1.35484" height="42" transform="matrix(-0.707107 -0.707107 -0.707107 0.707107 140.328 6.62988)" fill="#C4AB8E"/>
  <rect x="156" y="21.6777" width="1.35484" height="42" transform="rotate(-90 156 21.6777)" fill="#C4AB8E"/>
  <rect x="176.322" width="1.35484" height="42" fill="#C4AB8E"/>
  <rect x="162.629" y="36.3281" width="1.35484" height="42" transform="rotate(-135 162.629 36.3281)" fill="#C4AB8E"/>
  <rect x="161.672" y="6.62988" width="1.35484" height="42" transform="rotate(-45 161.672 6.62988)" fill="#C4AB8E"/>
</svg>